<?xml version="1.0" encoding="UTF-8"?>
<svg id="SVGDoc" width="23" height="20" xmlns="http://www.w3.org/2000/svg" version="1.1" xmlnsXlink="http://www.w3.org/1999/xlink" xmlnsAvocode="https://avocode.com/" viewBox="0 0 23 20"><defs></defs><desc>Generated with Avocode.</desc><g><g><title>love</title><path d="M11.57008,18.4443c0,0 0,0 0,0c0,0 0,0 0.00001,0zM1.56931,6.60766c0.00188,-2.25751 1.46585,-4.25372 3.61844,-4.93396c2.15258,-0.68024 4.4978,0.11224 5.79658,1.95872c0.13381,0.18994 0.35164,0.30293 0.58397,0.30293c0.23234,0 0.45016,-0.113 0.58397,-0.30293c1.29776,-1.84975 3.64497,-2.6446 5.79962,-1.96397c2.15464,0.68063 3.61931,2.67961 3.61897,4.93921c0,5.14683 -8.1542,10.65439 -10.00078,11.83664c-1.84658,-1.17868 -10.00077,-6.68624 -10.00077,-11.83664zM16.3919,0c-1.82729,0.00212 -3.57239,0.75963 -4.82181,2.09302c-1.85369,-1.97839 -4.72778,-2.62371 -7.24932,-1.6277c-2.52154,0.99601 -4.17881,3.43122 -4.18015,6.14235c0,6.57909 10.61154,13.03673 11.07229,13.29032c0.2264,0.13602 0.50937,0.13602 0.73577,0c0.43932,-0.25359 11.05086,-6.71124 11.05086,-13.29032c-0.00393,-3.64768 -2.95998,-6.60372 -6.60766,-6.60766z" fill="#E46F2A" fill-opacity="1"></path></g></g></svg>