<?xml version="1.0" encoding="UTF-8"?>
<svg id="SVGDoc" width="19" height="20" xmlns="http://www.w3.org/2000/svg" version="1.1" xmlns:xlink="http://www.w3.org/1999/xlink" xmlns:avocode="https://avocode.com/" viewBox="0 0 19 20"><defs></defs><desc>Generated with Avocode.</desc><g><g><title>043-user</title><path d="M9.32423,9.31673c4.40625,0.00001 7.99088,3.58463 7.99088,7.99089v0.22363c-5.19401,1.50716 -10.78646,1.50716 -15.98177,0v-0.22363c0,-4.40625 3.58463,-7.99088 7.99088,-7.99089zM5.99935,4.6582c0,-1.83333 1.49153,-3.32487 3.32487,-3.32487c1.83333,0 3.32487,1.49153 3.32487,3.32487c0,1.83366 -1.49153,3.32519 -3.32487,3.32519c-1.83333,0 -3.32487,-1.49153 -3.32487,-3.32519zM0,17.30762v0.72005c0,0.29232 0.19075,0.55078 0.47005,0.63705c2.87044,0.88606 5.84961,1.33528 8.85417,1.33528c3.00521,0 5.98437,-0.44922 8.85417,-1.33529c0.2793,-0.08626 0.47005,-0.34473 0.47005,-0.63705v-0.72005c0,-4.18026 -2.7655,-7.7266 -6.56287,-8.90641c1.14791,-0.84929 1.89685,-2.20866 1.89685,-3.743c-0.00001,-2.56868 -2.08985,-4.6582 -4.65821,-4.6582c-2.56836,0 -4.6582,2.08952 -4.6582,4.6582c0,1.53434 0.74894,2.89372 1.89685,3.743c-3.79737,1.17981 -6.56287,4.72616 -6.56287,8.90642z" fill="#637786" fill-opacity="1"></path></g></g></svg>